<svg width="10" height="18" viewBox="0 0 10 18" fill="none" xmlns="http://www.w3.org/2000/svg">
<path d="M2.61563 3.48601C2.61563 3.93962 2.61563 5.96425 2.61563 5.96425H0.799988V8.99464H2.61563V17.9999H6.34534V8.99489H8.84814C8.84814 8.99489 9.08254 7.54184 9.19616 5.95307C8.87041 5.95307 6.35944 5.95307 6.35944 5.95307C6.35944 5.95307 6.35944 4.19008 6.35944 3.88107C6.35944 3.57138 6.76609 3.15481 7.16801 3.15481C7.56918 3.15481 8.41588 3.15481 9.2001 3.15481C9.2001 2.74222 9.2001 1.31662 9.2001 1.0825e-08C8.15319 1.0825e-08 6.96215 1.0825e-08 6.43715 1.0825e-08C2.52343 -0.000209236 2.61563 3.0332 2.61563 3.48601Z" fill="#4053A0"/>
</svg>
