<svg width="18" height="18" viewBox="0 0 18 18" fill="none" xmlns="http://www.w3.org/2000/svg">
<path d="M12.6377 0H5.3623C2.40551 0 0 2.40551 0 5.3623V12.6377C0 15.5945 2.40551 18 5.3623 18H12.6377C15.5945 18 18 15.5945 18 12.6377V5.3623C18 2.40551 15.5945 0 12.6377 0ZM16.1892 12.6377C16.1892 14.5991 14.5991 16.1892 12.6377 16.1892H5.3623C3.40088 16.1892 1.8108 14.5991 1.8108 12.6377V5.3623C1.8108 3.40084 3.40088 1.8108 5.3623 1.8108H12.6377C14.5991 1.8108 16.1892 3.40084 16.1892 5.3623V12.6377Z" fill="url(#paint0_linear)"/>
<path d="M8.99998 4.34473C6.43297 4.34473 4.34454 6.43315 4.34454 9.00013C4.34454 11.5671 6.43297 13.6556 8.99998 13.6556C11.567 13.6556 13.6554 11.5671 13.6554 9.00013C13.6554 6.43312 11.567 4.34473 8.99998 4.34473ZM8.99998 11.8448C7.42892 11.8448 6.15534 10.5712 6.15534 9.00017C6.15534 7.4291 7.42895 6.15553 8.99998 6.15553C10.571 6.15553 11.8446 7.4291 11.8446 9.00017C11.8446 10.5712 10.571 11.8448 8.99998 11.8448Z" fill="url(#paint1_linear)"/>
<path d="M13.6644 5.49474C14.2805 5.49474 14.78 4.9953 14.78 4.37921C14.78 3.76311 14.2805 3.26367 13.6644 3.26367C13.0483 3.26367 12.5489 3.76311 12.5489 4.37921C12.5489 4.9953 13.0483 5.49474 13.6644 5.49474Z" fill="url(#paint2_linear)"/>
<defs>
<linearGradient id="paint0_linear" x1="9" y1="17.9476" x2="9" y2="0.139809" gradientUnits="userSpaceOnUse">
<stop stop-color="#E09B3D"/>
<stop offset="0.3" stop-color="#C74C4D"/>
<stop offset="0.6" stop-color="#C21975"/>
<stop offset="1" stop-color="#7024C4"/>
</linearGradient>
<linearGradient id="paint1_linear" x1="8.99998" y1="17.9478" x2="8.99998" y2="0.139977" gradientUnits="userSpaceOnUse">
<stop stop-color="#E09B3D"/>
<stop offset="0.3" stop-color="#C74C4D"/>
<stop offset="0.6" stop-color="#C21975"/>
<stop offset="1" stop-color="#7024C4"/>
</linearGradient>
<linearGradient id="paint2_linear" x1="13.6644" y1="17.9473" x2="13.6644" y2="0.139518" gradientUnits="userSpaceOnUse">
<stop stop-color="#E09B3D"/>
<stop offset="0.3" stop-color="#C74C4D"/>
<stop offset="0.6" stop-color="#C21975"/>
<stop offset="1" stop-color="#7024C4"/>
</linearGradient>
</defs>
</svg>
