<svg width="539" height="423" viewBox="0 0 539 423" fill="none" xmlns="http://www.w3.org/2000/svg">
<path d="M249 419C164 429 184 412 185 389C273.333 289.333 452.8 98.2 464 131C475.2 163.8 459.333 190.667 450 200L374 353C360.667 371.667 317 411 249 419Z" fill="#EAF5F8"/>
<path d="M13.2972 148.959C-22.9147 209.459 29.2972 231.459 60.2973 233.959C53.2973 242.292 35.6972 261.059 23.2972 279.459C7.79716 302.459 -23.203 349.459 29.297 393.959C86.2969 442.273 187.797 413.959 253.297 394.959C305.488 379.819 328.964 368.459 330.797 365.959C332.631 365.459 326.697 370.459 314.297 380.459C298.797 392.959 297.297 405.459 304.797 413.959C312.297 422.459 325.797 425.459 369.797 417.459C413.071 409.591 462.297 381.459 486.797 360.459C506.397 343.659 499.964 332.459 494.297 328.959C499.297 323.125 511.697 306.059 525.297 282.459C542.297 252.959 544.797 224.959 522.798 202.959C509.298 189.459 446.131 184.459 417.797 186.459C427.631 184.459 451.162 167.614 483.297 128.959C517.797 87.4586 511.797 57.9072 456.797 41.4586C408.297 26.9539 314.829 43.9588 314.797 41.4586C314.297 1.95861 278.297 -2.54099 247.797 0.958606C219.797 4.17136 54.2971 80.4591 13.2972 148.959Z" fill="white"/>
</svg>
