<svg width="150" height="99" viewBox="0 0 150 99" fill="none" xmlns="http://www.w3.org/2000/svg">
<path d="M143.85 45.2513C143.82 45.2513 143.82 45.2513 143.82 45.2513C143.495 43.1636 141.603 41.6347 139.444 41.7817C139.001 41.8111 138.587 41.9287 138.202 42.0757C137.463 38.959 134.595 36.695 131.313 36.7832C130.101 33.4606 126.789 31.226 123.063 31.52C118.599 31.8729 115.228 35.7247 115.583 40.1939C115.583 40.1939 115.583 40.1939 115.583 40.2233C114.341 40.3704 113.276 41.0466 112.626 42.0169C111.916 41.7523 111.118 41.6053 110.26 41.6641C107.303 41.8993 105.115 44.428 105.352 47.3683C105.5 49.4853 106.889 51.1907 108.782 51.9257C109.58 54.2192 111.827 55.8069 114.37 55.6305C115.642 55.5129 116.765 55.0131 117.652 54.2192C119.042 56.395 121.526 57.7475 124.305 57.5417C126.375 57.3947 128.179 56.3656 129.391 54.8661C130.869 56.3068 133.176 57.1595 135.748 56.9537C139.208 56.689 141.987 54.6014 142.638 52.0434C143.17 52.2198 143.761 52.308 144.412 52.2786C146.57 52.1316 148.196 50.4262 148.049 48.4856C147.871 46.5156 146.008 45.0748 143.85 45.2513Z" fill="#E7F9FF"/>
<path opacity="0.4" d="M148.019 48.4562C147.871 46.545 146.008 45.1043 143.85 45.2513C143.82 45.2513 143.82 45.2513 143.82 45.2513C143.495 43.1637 141.603 41.6347 139.444 41.7817C139.001 41.8111 138.587 41.9287 138.202 42.0757C138.202 42.0757 143.052 41.7523 143.258 45.9863C143.436 45.9569 143.613 45.9569 143.791 45.9863C145.565 46.104 146.955 47.4565 146.836 48.9855C146.718 50.5144 145.21 51.6905 143.406 51.5729C142.963 51.5435 142.519 51.4259 142.135 51.2495C141.514 52.455 140.509 53.5135 138.971 53.9252C130.958 55.9834 128.652 51.1613 128.652 51.1613C128.652 51.1613 126.05 55.1013 122.62 54.8955C119.19 54.6896 117.623 51.6611 117.623 51.6611C117.623 51.6611 114.695 55.1601 111.827 53.7781C108.959 52.3962 108.959 48.5444 108.959 48.5444C108.959 48.5444 103.637 46.7802 108.25 42.2228C106.387 43.1637 105.174 45.1631 105.352 47.3389C105.5 49.4559 106.889 51.1613 108.782 51.8964C109.58 54.1898 111.827 55.7776 114.37 55.6011C115.642 55.4835 116.765 54.9837 117.652 54.1898C119.042 56.3656 121.526 57.7182 124.305 57.5123C126.375 57.3653 128.179 56.3362 129.391 54.8367C130.869 56.2774 133.176 57.1301 135.748 56.9243C139.208 56.6596 141.987 54.572 142.638 52.014C143.17 52.1904 143.761 52.2786 144.412 52.2492C146.541 52.0728 148.167 50.3674 148.019 48.4562Z" fill="#E7F9FF"/>
<path d="M83.4418 89.9732C84.1218 86.3566 83.8262 82.6518 83.56 79.0059C83.2644 75.0365 83.1757 71.0082 82.5547 67.0682C82.4956 66.6272 81.7564 66.5978 81.6972 67.0388C81.0172 70.5672 81.4903 74.1838 81.8155 77.7709C82.1703 81.7991 82.259 85.798 82.5252 89.8262C82.5252 90.326 83.3531 90.5612 83.4418 89.9732Z" fill="#FFAF5F"/>
<path d="M45.5647 90.6201C47.0136 87.3858 46.6292 83.5634 46.3631 80.1232C46.0674 76.1244 45.7717 72.0668 45.1508 68.0974C45.0916 67.6858 44.382 67.6269 44.2933 68.068C43.6723 71.3317 44.1454 74.6249 44.4707 77.8886C44.9142 82.1226 44.7664 86.2685 44.9438 90.5025C44.9734 90.8847 45.4169 90.9436 45.5647 90.6201Z" fill="#FFAF5F"/>
<path d="M95.1508 87.9151C94.589 91.2082 93.1402 88.2679 91.8392 87.0918C91.2774 86.5625 90.1538 86.2685 89.4146 86.6802C88.7049 87.0624 87.4926 90.0615 86.9012 89.8851C85.4228 89.4735 84.1218 88.4443 82.6138 88.1503C82.5843 88.6502 82.5843 89.1206 82.5547 89.6205C82.5843 89.6205 82.5843 89.6205 82.6138 89.6205C83.3531 89.5028 83.3826 88.3267 82.673 88.1503C81.372 87.8269 79.3613 87.9445 78.2673 87.18C78.356 87.5328 78.4447 87.8857 78.5039 88.2679C78.5334 88.2385 78.5334 88.2091 78.563 88.2091C79.0361 87.5034 78.2082 86.8272 77.5281 87.1212C76.4341 87.5916 75.4583 88.2679 74.453 88.8854C73.0929 89.7087 71.23 88.6502 69.929 88.2091C67.6819 87.4446 65.9373 89.1794 64.5476 90.679C64.932 90.679 65.3164 90.7084 65.7008 90.7084C64.4885 89.4146 61.5021 85.9157 59.2845 87.0918C58.5748 87.4446 58.3087 87.9151 58.0426 88.6502C57.8356 89.1794 57.7765 89.7969 57.6286 90.3555C57.2442 91.8845 55.3223 90.0321 54.8788 89.7087C53.0751 88.4737 50.0887 87.2388 48.2555 88.7972C46.8658 90.0027 46.5701 90.8848 44.5003 90.1791C43.0515 89.6793 41.8096 89.8263 40.4199 90.4143C39.592 90.7672 40.1242 92.0609 40.9817 91.8551C43.4063 91.2964 45.6535 93.2076 47.8711 92.1785C48.492 91.8845 48.9355 90.973 49.2608 90.4143C50.0296 89.15 54.0804 91.2964 54.8196 91.8845C55.825 92.6784 57.8947 93.2076 58.8114 91.9433C59.2845 91.267 59.4619 90.532 59.6393 89.7381C60.1715 87.2682 63.8971 91.0906 64.5772 91.8257C64.8729 92.1197 65.4347 92.1785 65.7303 91.8551C66.9426 90.532 68.0662 89.2382 69.9882 89.8851C70.8161 90.1497 71.5849 90.532 72.4423 90.6202C74.9557 90.9436 76.1088 89.444 78.3264 88.4737C77.9716 88.1209 77.6464 87.7387 77.2915 87.3858C77.262 87.4152 77.262 87.4446 77.2324 87.4446C76.9959 87.8269 77.1141 88.2679 77.469 88.5326C78.7404 89.4146 80.7806 89.2676 82.259 89.6499C82.2886 89.15 82.2886 88.6796 82.3182 88.1797C82.2886 88.1797 82.2886 88.1797 82.259 88.1797C81.5494 88.2973 81.4607 89.5029 82.1999 89.6499C84.4175 90.0909 86.369 92.3255 88.4388 90.679C88.9415 90.2673 89.2076 89.5029 89.4441 88.9736C90.1242 87.5034 91.4252 88.562 92.0461 89.4146C92.874 90.532 93.6133 91.0906 95.003 91.2376C95.3578 91.267 95.5648 90.973 95.5943 90.679C95.7422 89.7675 95.7422 89.003 95.683 88.0915C95.6239 87.7387 95.2099 87.6211 95.1508 87.9151Z" fill="#FFAF5F"/>
<path d="M89.9468 66.1863C81.372 66.8625 72.8859 67.0977 64.2815 67.333C59.6393 67.4506 54.9971 67.6858 50.3253 67.8916C46.1266 68.068 41.8096 67.9798 37.67 68.5679C36.8126 68.6855 37.0195 69.9499 37.8179 70.0087C42.3418 70.3321 47.0432 69.744 51.5376 69.4794C56.1798 69.2148 60.8516 68.9795 65.4938 68.7443C73.566 68.3621 82.1112 69.0384 89.9764 66.7743C90.3312 66.6861 90.3016 66.1569 89.9468 66.1863Z" fill="#FFAF5F"/>
<path d="M91.4548 66.8036C86.7238 63.3341 80.6032 62.4814 75.2218 60.3938C68.8941 57.9827 63.01 54.5132 56.8303 51.7199C56.5937 51.6317 56.2389 51.7199 56.0911 51.8963C50.0591 58.659 42.4009 63.6281 36.0733 70.0674C35.4819 70.6554 36.3099 71.5081 36.9604 71.0083C40.8929 67.7445 44.8255 64.422 48.7285 61.1288C50.6505 59.4823 52.5429 57.8063 54.3465 56.0421C55.0857 55.3364 55.7658 54.572 56.4754 53.8075C57.3625 52.8078 60.7037 55.1306 61.709 55.6305C66.4104 57.9239 71.0231 60.3644 75.9314 62.2168C80.9876 64.128 86.1325 65.4217 91.0999 67.6563C91.573 67.8327 91.8391 67.0683 91.4548 66.8036Z" fill="#FFAF5F"/>
<path d="M78.2968 62.6284C79.7161 61.8933 80.5736 60.3938 81.1649 58.9824C81.845 57.3653 82.8799 55.3365 82.6729 53.5429C82.6434 53.2195 82.1998 53.1607 81.9928 53.3371C80.9579 54.3074 80.751 55.8657 80.3074 57.1301C79.6865 58.9236 78.7994 60.4232 77.7054 61.9521C77.3802 62.3638 77.8828 62.8342 78.2968 62.6284Z" fill="#FFAF5F"/>
<path d="M72.1762 60.3056C73.2406 59.2471 73.8911 58.0415 74.4529 56.6596C75.0443 55.1894 76.0791 53.3076 75.8722 51.7199C75.8426 51.4847 75.4878 51.3376 75.3104 51.4553C74.2163 52.1903 73.9502 53.4841 73.5659 54.6896C72.9745 56.4538 72.531 58.2768 71.7326 59.9233C71.5552 60.188 71.91 60.5702 72.1762 60.3056Z" fill="#FFAF5F"/>
<path d="M82.7912 53.8957C81.4902 53.0136 79.7457 52.6902 78.2377 52.3079C76.848 51.9551 74.9556 51.3376 73.6546 52.0433C73.3885 52.1903 73.3885 52.5432 73.625 52.6902C74.7486 53.4841 76.4636 53.4253 77.7942 53.7193C79.3317 54.0721 80.9284 54.7778 82.5251 54.719C82.9982 54.719 83.1756 54.1604 82.7912 53.8957Z" fill="#FFAF5F"/>
<path d="M80.4849 52.0727C81.4311 49.4853 83.4417 47.6917 86.0437 46.8684C89.385 45.8099 91.5434 47.6329 91.0703 51.0142C91.5434 51.0436 92.0165 51.0436 92.4896 51.073C92.4896 46.3392 97.6641 46.1333 101.212 46.9272C102.927 47.3095 104.553 48.1033 106.002 49.0736C106.801 49.6323 107.481 50.3674 108.043 51.1907C108.663 52.1021 108.309 53.4547 107.569 52.2198C107.481 52.5432 107.392 52.8666 107.274 53.1607C108.072 52.6608 109.107 52.2786 109.935 51.8375C113.483 49.8969 118.303 53.7487 117.209 57.5123C117.652 57.5417 118.096 57.5417 118.569 57.5711C117.534 54.7778 123.388 55.7481 124.601 56.0422C128.859 57.0713 128.415 60.629 128.356 64.2162C128.356 64.6278 128.947 64.716 129.066 64.3338C130.633 59.2765 129.036 55.5129 123.802 54.4838C121.496 54.0427 115.849 54.0721 117.238 57.8945C117.445 58.512 118.362 58.659 118.598 57.9534C119.485 55.013 118.066 52.1904 115.257 50.8966C112.153 49.4853 109.432 50.2204 106.653 51.9845C106.328 52.1904 106.15 52.602 106.357 52.9254C106.949 53.8957 109.551 55.2777 110.112 53.5429C110.97 50.8378 107.215 48.0739 105.293 46.986C100.71 44.428 91.1591 43.7223 91.1295 51.0436C91.1295 51.9845 92.4009 51.9551 92.5488 51.1024C93.9089 41.9287 80.5145 44.8984 79.657 51.9551C79.5091 52.455 80.3075 52.5432 80.4849 52.0727Z" fill="#FFAF5F"/>
<path d="M68.5097 83.534C68.3914 81.9757 68.3323 80.4173 68.1549 78.8589C68.007 77.5064 68.0957 75.8598 67.2383 74.7719C67.0313 74.5073 66.5286 74.6249 66.4695 74.9483C66.1738 76.1245 66.6173 77.4182 66.8243 78.5943C67.0904 80.2997 67.4452 81.9462 68.007 83.5928C68.0957 83.8574 68.5393 83.8574 68.5097 83.534Z" fill="#FFAF5F"/>
<path d="M67.948 82.7107C66.026 82.5637 64.1041 82.6519 62.1821 82.5931C60.3785 82.5343 58.7226 82.4755 57.0373 83.2106C56.8007 83.3282 56.8303 83.7398 57.0964 83.7986C58.7522 84.0927 60.4376 84.0339 62.123 84.0927C64.1041 84.1515 66.1443 84.2985 68.0367 83.681C68.5689 83.5046 68.5098 82.7695 67.948 82.7107Z" fill="#FFAF5F"/>
<path d="M58.2792 83.3281C58.7227 82.005 58.6931 80.5348 58.6931 79.1529C58.6931 78.0062 58.8705 76.7124 58.1313 75.7715C57.9539 75.5363 57.5104 75.5951 57.3921 75.8303C56.8894 76.83 57.1851 78.0062 57.2147 79.0941C57.2443 80.476 57.126 81.9168 57.4512 83.2987C57.5399 83.7103 58.1313 83.7103 58.2792 83.3281Z" fill="#FFAF5F"/>
<path d="M68.2732 75.2129C64.6954 74.1544 60.4967 74.8895 56.8303 75.1247C56.0615 75.1835 56.0024 76.2714 56.8007 76.3302C60.4672 76.6831 64.518 76.0656 68.1845 75.7128C68.4506 75.6834 68.5689 75.3011 68.2732 75.2129Z" fill="#FFAF5F"/>
<path d="M68.4801 78.8001C66.4695 78.4178 64.3701 78.4766 62.3299 78.5355C60.6741 78.5649 58.3678 78.506 57.0963 79.6822C56.8598 79.9174 57.0076 80.329 57.3329 80.329C59.1661 80.4172 61.1176 79.7704 62.9804 79.7116C64.8137 79.6528 66.6765 79.7998 68.4801 79.2705C68.6575 79.1823 68.7167 78.8295 68.4801 78.8001Z" fill="#FFAF5F"/>
<path d="M62.3596 78.6825C62.1526 79.6528 62.2413 80.5937 62.3891 81.5346C62.5074 82.3285 62.744 83.387 63.6014 83.681C63.7788 83.7398 63.9267 83.6222 64.0154 83.4752C64.3111 82.8283 63.9562 82.1521 63.8084 81.5052C63.6014 80.5937 63.5719 79.6234 63.424 78.6825C63.3353 78.1827 62.4778 78.1532 62.3596 78.6825Z" fill="#FFAF5F"/>
<path d="M91.2779 26.1099C91.2483 26.1099 91.2483 26.1099 91.2188 26.1099C90.6865 22.5521 87.4636 19.9647 83.7971 20.2293C83.0579 20.2881 82.3187 20.4645 81.6682 20.7291C80.4263 15.4366 75.5476 11.6142 69.9592 11.7318C67.8894 6.11584 62.2714 2.32285 55.9733 2.7933C48.3743 3.38136 42.6972 9.93823 43.2885 17.4948C43.2885 17.4948 43.2885 17.4948 43.2885 17.5242C41.1892 17.7594 39.3855 18.9356 38.2915 20.5821C37.0792 20.1117 35.7191 19.8765 34.2998 19.9941C29.3027 20.3763 25.5771 24.6986 25.9615 29.6677C26.2276 33.2548 28.5931 36.1657 31.7569 37.4007C33.0875 41.3113 36.9314 43.9869 41.2483 43.6635C43.4068 43.4871 45.3288 42.605 46.8072 41.2525C49.1431 44.9278 53.4009 47.2507 58.0727 46.8978C61.5913 46.6332 64.6664 44.8984 66.7066 42.3404C69.1904 44.7808 73.1525 46.2216 77.4991 45.8687C83.3832 45.4277 88.0845 41.8993 89.1786 37.5477C90.0952 37.8711 91.1005 38.0181 92.1649 37.9593C95.8314 37.6947 98.5813 34.8132 98.3152 31.5201C98.1082 28.2857 94.9444 25.8453 91.2779 26.1099Z" fill="#E7F9FF"/>
<path opacity="0.4" d="M98.3738 31.5495C98.1372 28.2857 94.9438 25.8453 91.3069 26.1099C91.2774 26.1099 91.2774 26.1099 91.2478 26.1099C90.7156 22.5521 87.4926 19.9647 83.8261 20.2293C83.0869 20.2881 82.3477 20.4645 81.6972 20.7292C81.6972 20.7292 89.9172 20.1999 90.272 27.3448C90.5677 27.3154 90.8634 27.3154 91.1887 27.3448C94.2046 27.5213 96.5405 29.8147 96.3631 32.4316C96.1857 35.0484 93.6133 37.0184 90.5677 36.842C89.7989 36.7832 89.0597 36.6068 88.4092 36.3128C87.3448 38.371 85.6594 40.1646 83.0278 40.8408C69.4264 44.3104 65.4938 36.1657 65.4938 36.1657C65.4938 36.1657 61.0585 42.8696 55.2632 42.5168C49.4678 42.164 46.7771 37.0184 46.7771 37.0184C46.7771 37.0184 41.8096 42.9578 36.9308 40.6056C32.052 38.2534 32.0816 31.7259 32.0816 31.7259C32.0816 31.7259 23.0633 28.7562 30.8693 20.9938C27.7055 22.6109 25.6653 25.9629 25.961 29.6971C26.2271 33.2842 28.5926 36.1951 31.7564 37.4301C33.0869 41.3407 36.9308 44.0164 41.2478 43.6929C43.4063 43.5165 45.3282 42.6344 46.8066 41.2819C49.1425 44.9572 53.4004 47.2801 58.0722 46.9273C61.5908 46.6626 64.6659 44.9278 66.7061 42.3698C69.1898 44.8102 73.152 46.251 77.4985 45.8981C83.3826 45.4571 88.084 41.9287 89.178 37.5771C90.0946 37.9005 91.1 38.0475 92.1644 37.9887C95.8605 37.6947 98.6103 34.8132 98.3738 31.5495Z" fill="#E7F9FF"/>
<path d="M19.2194 30.5498C15.1981 30.8732 13.1283 37.136 14.9911 40.3998C17.1792 44.281 23.3294 46.1039 27.0254 43.193C30.3667 40.6056 33.56 33.8429 28.2969 31.4318C25.0739 29.9323 19.1011 31.8729 19.1898 35.9305C19.1898 36.2245 19.6629 36.401 19.7812 36.1069C20.8752 33.6371 23.6547 32.4904 26.2271 32.5198C31.9042 32.5492 28.9178 39.6059 26.5819 41.8111C23.7729 44.4574 18.4211 43.3401 16.3809 40.3116C14.6955 37.8123 16.44 32.3727 19.249 31.1966C19.6334 31.079 19.6334 30.4909 19.2194 30.5498Z" fill="#FFAF5F"/>
<path d="M15.4346 29.1972C14.3406 27.3154 13.5127 24.8162 11.502 23.7282C11.3246 23.64 11.0289 23.7576 11.0585 23.9929C11.2951 26.2275 13.0692 28.0799 14.3702 29.8147C14.8137 30.4321 15.8486 29.9029 15.4346 29.1972Z" fill="#FFAF5F"/>
<path d="M19.1012 27.3742C18.8942 26.6097 18.7168 25.8158 18.5394 25.0219C18.3915 24.1987 18.4507 23.2872 18.0071 22.5521C17.8593 22.2875 17.4453 22.2875 17.2975 22.5521C16.4991 23.9634 17.5636 26.2569 18.0663 27.6388C18.3028 28.3151 19.2786 28.0505 19.1012 27.3742Z" fill="#FFAF5F"/>
<path d="M29.5387 29.3148C29.7457 28.4033 30.6919 27.6388 31.3424 27.0508C31.9338 26.4921 32.8799 25.6688 32.5843 24.7573C32.4955 24.5221 32.2886 24.3163 32.0225 24.3163C31.0171 24.3163 30.1597 25.5512 29.5683 26.2275C28.7404 27.1684 28.4743 28.1093 28.6221 29.3148C28.6812 29.8147 29.4205 29.7558 29.5387 29.3148Z" fill="#FFAF5F"/>
<path d="M32.9095 37.0184C34.0923 36.9008 35.2454 36.7832 36.4282 36.7244C37.4335 36.6656 38.3797 36.7832 39.2371 36.2539C39.4737 36.1069 39.4737 35.7835 39.2371 35.6365C37.4926 34.5485 34.3288 35.3718 32.7321 36.4303C32.5251 36.5774 32.5843 37.0478 32.9095 37.0184Z" fill="#FFAF5F"/>
<path d="M28.356 44.7514C29.2726 45.6923 30.3075 46.4567 31.4311 47.1624C32.5843 47.8681 33.6487 48.6326 34.9793 48.8678C35.3046 48.9266 35.5707 48.6326 35.4228 48.3091C34.8315 47.1036 33.7966 46.5744 32.673 45.9275C31.4902 45.2218 30.2484 44.6044 29.0656 43.8987C28.5038 43.5459 27.9125 44.3103 28.356 44.7514Z" fill="#FFAF5F"/>
<path d="M23.2999 47.5741C23.2407 48.6032 23.0042 49.6323 23.0042 50.6908C23.0042 51.5141 22.945 52.4256 23.6251 53.0137C23.8616 53.2195 24.2756 53.2195 24.453 52.896C24.867 52.1904 24.66 51.4553 24.6009 50.6908C24.5417 49.6617 24.4234 48.6032 24.3643 47.5741C24.3347 46.8978 23.3294 46.8978 23.2999 47.5741Z" fill="#FFAF5F"/>
<path d="M16.3808 44.9278C15.7008 45.6335 15.0207 46.3098 14.3111 47.0154C13.5718 47.7211 13.0988 48.5738 12.6552 49.4559C12.537 49.6617 12.7144 49.8969 12.9509 49.8381C15.0503 49.3089 16.1147 47.5741 17.4157 45.9569C18.0071 45.2219 17.0609 44.2222 16.3808 44.9278Z" fill="#FFAF5F"/>
<path d="M11.4725 34.872C9.75753 34.3428 7.89472 34.1369 6.12063 33.7841C4.61264 33.4901 3.13423 33.2843 1.68538 33.8135C1.44883 33.9017 1.36013 34.2545 1.59668 34.4016C3.04552 35.166 4.67178 35.4013 6.29804 35.6659C7.98343 35.9305 9.7871 36.254 11.4429 35.8129C11.9456 35.6659 11.916 34.9896 11.4725 34.872Z" fill="#FFAF5F"/>
<path d="M10.2306 43.7223C10.7333 43.2518 11.2655 42.7814 11.8569 42.3698C12.3595 41.9875 13.1283 41.6935 13.1874 40.9878C13.1874 40.8996 13.1283 40.782 13.0396 40.7232C12.3595 40.3409 11.6203 40.9878 11.1177 41.4289C10.5263 41.9581 10.0532 42.605 9.60968 43.2518C9.37314 43.6341 9.93493 44.0163 10.2306 43.7223Z" fill="#FFAF5F"/>
</svg>
