<svg width="152" height="99" viewBox="0 0 152 99" fill="none" xmlns="http://www.w3.org/2000/svg">
<path d="M6.23213 45.2513C6.26209 45.2513 6.26209 45.2513 6.26209 45.2513C6.59168 43.1636 8.50928 41.6347 10.6965 41.7817C11.146 41.8111 11.5655 41.9287 11.955 42.0757C12.704 38.959 15.6104 36.695 18.9362 36.7832C20.1647 33.4606 23.5205 31.226 27.2958 31.52C31.8201 31.8729 35.2359 35.7247 34.8763 40.1939C34.8763 40.1939 34.8763 40.1939 34.8763 40.2233C36.1348 40.3704 37.2134 41.0466 37.8726 42.0169C38.5917 41.7523 39.4007 41.6053 40.2696 41.6641C43.2658 41.8993 45.4831 44.428 45.2434 47.3683C45.0936 49.4853 43.6853 51.1907 41.7677 51.9257C40.9587 54.2192 38.6816 55.8069 36.1048 55.6305C34.8164 55.5129 33.6778 55.0131 32.7789 54.2192C31.3707 56.395 28.8539 57.7475 26.0374 57.5417C23.94 57.3947 22.1123 56.3656 20.8838 54.8661C19.3857 56.3068 17.0486 57.1595 14.4419 56.9537C10.9362 56.689 8.11977 54.6014 7.46059 52.0434C6.92127 52.2198 6.32202 52.308 5.66284 52.2786C3.47557 52.1316 1.82763 50.4262 1.97744 48.4856C2.15722 46.5156 4.04486 45.0748 6.23213 45.2513Z" fill="#E7F9FF"/>
<path opacity="0.4" d="M2.00742 48.4562C2.15723 46.545 4.04487 45.1043 6.23214 45.2513C6.2621 45.2513 6.2621 45.2513 6.2621 45.2513C6.59169 43.1637 8.50929 41.6347 10.6966 41.7817C11.146 41.8111 11.5655 41.9287 11.955 42.0757C11.955 42.0757 7.04113 41.7523 6.83139 45.9863C6.65162 45.9569 6.47184 45.9569 6.29207 45.9863C4.49432 46.104 3.08607 47.4565 3.20592 48.9855C3.32577 50.5144 4.85386 51.6905 6.68158 51.5729C7.13102 51.5435 7.58045 51.4259 7.96997 51.2495C8.59918 52.455 9.61791 53.5135 11.176 53.9252C19.2958 55.9834 21.6329 51.1613 21.6329 51.1613C21.6329 51.1613 24.2696 55.1013 27.7453 54.8955C31.2209 54.6896 32.8089 51.6611 32.8089 51.6611C32.8089 51.6611 35.7752 55.1601 38.6816 53.7781C41.588 52.3962 41.588 48.5444 41.588 48.5444C41.588 48.5444 46.9812 46.7802 42.3071 42.2228C44.1947 43.1637 45.4232 45.1631 45.2434 47.3389C45.0936 49.4559 43.6853 51.1613 41.7677 51.8964C40.9587 54.1898 38.6816 55.7776 36.1048 55.6011C34.8164 55.4835 33.6778 54.9837 32.779 54.1898C31.3707 56.3656 28.8539 57.7182 26.0374 57.5123C23.94 57.3653 22.1123 56.3362 20.8838 54.8367C19.3857 56.2774 17.0486 57.1301 14.4419 56.9243C10.9363 56.6596 8.11979 54.572 7.46061 52.014C6.92128 52.1904 6.32203 52.2786 5.66285 52.2492C3.50555 52.0728 1.8576 50.3674 2.00742 48.4562Z" fill="#E7F9FF"/>
<path d="M59.5051 26.1099C59.5351 26.1099 59.5351 26.1099 59.565 26.1099C60.1043 22.5521 63.3703 19.9647 67.0856 20.2293C67.8347 20.2881 68.5837 20.4645 69.2429 20.7291C70.5013 15.4366 75.4452 11.6142 81.1081 11.7318C83.2055 6.11584 88.8983 2.32285 95.2804 2.7933C102.981 3.38136 108.734 9.93823 108.134 17.4948C108.134 17.4948 108.134 17.4948 108.134 17.5242C110.262 17.7594 112.089 18.9356 113.198 20.5821C114.426 20.1117 115.805 19.8765 117.243 19.9941C122.307 20.3763 126.082 24.6986 125.692 29.6677C125.423 33.2548 123.026 36.1657 119.82 37.4007C118.471 41.3113 114.576 43.9869 110.202 43.6635C108.014 43.4871 106.067 42.605 104.569 41.2525C102.202 44.9278 97.8871 47.2507 93.153 46.8978C89.5875 46.6332 86.4714 44.8984 84.404 42.3404C81.8871 44.7808 77.8721 46.2216 73.4676 45.8687C67.5051 45.4277 62.7411 41.8993 61.6324 37.5477C60.7036 37.8711 59.6849 38.0181 58.6062 37.9593C54.8909 37.6947 52.1043 34.8132 52.374 31.5201C52.5837 28.2857 55.7897 25.8453 59.5051 26.1099Z" fill="#E7F9FF"/>
<path opacity="0.4" d="M52.3146 31.5495C52.5543 28.2857 55.7903 25.8453 59.4756 26.1099C59.5056 26.1099 59.5056 26.1099 59.5356 26.1099C60.0749 22.5521 63.3408 19.9647 67.0562 20.2293C67.8052 20.2881 68.5543 20.4645 69.2135 20.7292C69.2135 20.7292 60.8839 20.1999 60.5243 27.3448C60.2247 27.3154 59.9251 27.3154 59.5955 27.3448C56.5393 27.5213 54.1723 29.8147 54.3521 32.4316C54.5318 35.0484 57.1386 37.0184 60.2247 36.842C61.0037 36.7832 61.7528 36.6068 62.412 36.3128C63.4906 38.371 65.1985 40.1646 67.8652 40.8408C81.6479 44.3104 85.633 36.1657 85.633 36.1657C85.633 36.1657 90.1273 42.8696 96 42.5168C101.873 42.164 104.599 37.0184 104.599 37.0184C104.599 37.0184 109.633 42.9578 114.577 40.6056C119.521 38.2534 119.491 31.7259 119.491 31.7259C119.491 31.7259 128.629 28.7562 120.719 20.9938C123.925 22.6109 125.993 25.9629 125.693 29.6971C125.423 33.2842 123.026 36.1951 119.82 37.4301C118.472 41.3407 114.577 44.0164 110.202 43.6929C108.015 43.5165 106.067 42.6344 104.569 41.2819C102.202 44.9572 97.8876 47.2801 93.1536 46.9273C89.588 46.6626 86.4719 44.9278 84.4045 42.3698C81.8876 44.8102 77.8727 46.251 73.4682 45.8981C67.5056 45.4571 62.7416 41.9287 61.6329 37.5771C60.7041 37.9005 59.6854 38.0475 58.6067 37.9887C54.8614 37.6947 52.0749 34.8132 52.3146 31.5495Z" fill="#E7F9FF"/>
<g clip-path="url(#clip0)">
<path d="M97.5995 54.6039C96.9248 53.1787 95.7154 52.3209 94.2745 51.8787C94.1502 51.8367 94.0385 51.8103 93.9142 51.7682C93.8041 51.7277 93.694 51.6872 93.5823 51.6608C91.6427 51.0645 89.6735 50.6073 87.7013 50.1782C87.6871 50.1766 87.6871 50.1766 87.673 50.1751C87.193 49.9803 86.7947 49.6949 86.4258 49.2705C83.9274 46.4509 80.9581 44.5328 77.5037 43.5148C76.3426 43.1318 75.1426 42.844 73.8736 42.6625C73.7948 42.597 73.7317 42.519 73.7111 42.4456C72.682 40.0712 71.5163 37.7672 70.0916 35.6056C68.801 33.6578 67.4351 31.7445 65.5123 30.3393C64.9691 29.9384 64.3018 29.6236 63.6444 29.4806C63.3706 29.3653 63.0922 29.2921 62.8122 29.233C61.7617 29.0186 60.9541 29.8549 61.0243 30.9152C61.2358 33.8261 61.4629 36.7244 61.6602 39.6337C61.7224 40.6363 61.7279 41.6326 61.7633 42.6181C59.5822 42.92 57.4983 43.1188 55.4652 43.5081C50.4484 44.4672 45.4365 45.5122 40.4261 46.5431C40.3963 46.554 40.368 46.5509 40.324 46.5604C40.2988 46.5291 40.2609 46.4823 40.2357 46.4511C39.5416 45.4648 38.8162 44.5035 38.0609 43.5531C36.4132 41.4667 34.6667 39.4975 32.4889 37.9363C31.2402 37.0458 29.926 36.3615 28.5087 35.9646C27.4609 35.5939 26.3522 35.3873 25.1795 35.3728C24.6781 35.3749 24.3468 35.5235 24.0601 35.9189C23.2015 37.0911 22.6466 38.3675 22.4897 39.8014C22.2176 42.2894 22.852 44.6064 23.8383 46.8481C23.9648 47.1322 24.0927 47.4023 24.2192 47.6864C24.6333 48.6136 25.1071 49.519 25.5541 50.4072C25.0585 50.8793 24.4953 51.3156 24.0784 51.8532C23.4454 52.6659 23.4445 53.5905 23.9616 54.2303C24.089 54.8986 24.6012 55.4525 25.4506 55.6734C26.731 56.0126 28.0566 56.2003 29.3557 56.4989C29.6073 56.5549 29.8781 56.6983 30.0593 56.8746C31.3123 58.2492 32.534 59.6489 33.8027 61.0111C34.0454 61.2795 34.4404 61.4649 34.7896 61.5458C35.7946 61.7838 36.8089 61.9374 37.8327 62.1347C38.2683 62.2108 38.6882 62.2994 39.1521 62.3786C36.3404 63.8635 33.5161 65.3327 30.7044 66.8175C27.2851 68.6199 23.8895 70.4676 20.434 72.2091C19.3099 72.7974 18.994 74.7686 19.781 75.822C19.881 76.2171 20.0705 76.5792 20.3714 76.8397C21.1952 77.5557 22.1581 77.9171 23.1946 78.1301C25.8273 78.6741 28.4646 78.5216 31.1047 78.213C36.8186 77.5578 42.3261 76.0407 47.6671 73.9506C52.8291 71.9262 57.7053 69.3728 62.0668 65.8953C62.2394 65.7577 62.516 65.7168 62.7439 65.7275C66.5564 65.9596 70.3769 66.2495 74.1955 66.4254C78.0849 66.609 81.9798 66.4803 85.8581 65.9799C88.4432 65.651 90.9759 65.1457 93.3357 63.9955C94.788 63.2866 96.0056 62.3672 96.7663 61.0421C97.1877 60.4623 97.5037 59.7998 97.7045 59.0109C98.0955 57.5316 98.2726 56.0431 97.5995 54.6039ZM93.0766 62.1748C90.8835 63.3716 88.4939 63.8784 86.063 64.2384C81.8989 64.864 77.6957 64.9306 73.503 64.7707C70.3384 64.6379 67.1845 64.4067 64.0276 64.2036C64.9369 63.2219 65.8447 62.2543 66.751 61.3008C66.8968 61.1461 67.0002 60.9867 67.0469 60.8211C67.0626 60.8086 67.0798 60.782 67.0955 60.7695C67.5142 60.3459 67.4911 59.9023 67.273 59.4091C66.8558 58.5099 66.0624 58.039 65.1829 57.701C64.8934 57.5982 64.6039 57.4954 64.3113 57.4207C62.5886 56.8055 60.7791 56.7214 58.9714 56.7512C54.0216 56.8357 49.1949 57.7587 44.3827 58.8113C44.2067 58.8489 44.0357 58.9725 43.8803 59.0835C43.0817 59.7074 42.3099 60.3485 41.5002 60.9427C41.3433 61.0678 41.0652 61.1227 40.8687 61.087C38.8887 60.7282 36.8962 60.3537 34.9178 59.9808C33.8792 58.8714 32.8421 57.748 31.7279 56.545C31.786 56.5371 31.8426 56.5433 31.9007 56.5355C34.1372 56.3818 36.2183 55.6848 38.1791 54.6475C38.6658 54.3878 39.102 54.0656 39.6013 53.8215C39.9498 53.6463 40.1802 53.3727 40.3021 53.0447C41.0047 52.3818 40.8287 51.1107 40.2361 50.5054C39.2181 49.4694 38.047 48.7865 36.7524 48.4457C35.7754 48.0828 34.703 47.937 33.5651 47.9975C31.2467 48.1137 29.057 48.7562 26.9593 49.7358C26.9436 49.7483 26.9138 49.7593 26.8997 49.7578C25.4235 47.1495 24.1296 44.4475 24.0246 41.3491C23.9771 39.9498 24.2789 38.6314 24.9833 37.4282C25.2325 37.1141 25.5152 37.017 25.9286 37.0338C27.8498 37.1443 29.5664 37.8158 31.1409 38.87C33.2633 40.2828 34.9812 42.1209 36.5548 44.0996C37.5749 45.3777 38.5496 46.6792 39.5085 47.9933C39.7451 48.3179 39.9512 48.3973 40.3471 48.3126C47.0694 46.6866 53.8268 45.2635 60.7021 44.465C65.1116 43.9516 69.5249 43.6662 73.9499 44.321C74.5003 44.3954 75.0288 44.5386 75.5807 44.599C75.609 44.6021 75.6514 44.6067 75.6797 44.6098C75.2744 47.2682 75.3548 49.9372 75.8532 52.5807C75.8723 52.6681 75.8914 52.7555 75.9341 52.8882C75.9923 52.8804 76.0504 52.8725 76.1242 52.8521C76.1498 53.0114 76.1753 53.1707 76.215 53.3315C76.2341 53.4189 76.2532 53.5064 76.2959 53.6391C76.8066 53.5527 77.3031 53.4648 77.8012 53.3628C80.6529 52.8212 83.4905 52.2781 86.3391 51.7646C86.8356 51.6767 87.4048 51.7105 87.8939 51.8209C89.6286 52.1956 91.3634 52.5703 93.0874 53.0434C94.2278 53.3531 95.2854 53.8955 96.0392 54.8599C96.1275 54.9692 96.2001 55.0909 96.2742 55.1986C96.5862 56.1431 96.477 57.1412 96.2657 58.1565C95.8867 60.0497 94.7061 61.2862 93.0766 62.1748ZM21.8375 76.0043C20.9531 75.5804 20.6934 74.8123 21.0152 73.9655C21.0951 73.8889 21.172 73.8404 21.2489 73.7919C23.5048 72.545 25.7449 71.3107 28.0244 70.1091C32.0952 67.9796 36.2134 65.9407 40.2495 63.7363C41.8335 62.8711 43.2405 61.6594 44.7439 60.6147C44.8992 60.5037 45.0814 60.4098 45.2573 60.3721C49.2636 59.4874 53.3 58.7198 57.4069 58.4863C58.8623 58.4037 60.3195 58.435 61.8254 58.4148C62.7031 58.6389 63.6278 58.8254 64.5276 59.1087C64.9288 59.238 65.3035 59.4781 65.6327 59.7417C65.6721 59.7745 65.7114 59.8072 65.7367 59.8385C65.6914 59.99 65.5724 60.1619 65.3921 60.3698C62.2618 63.982 58.4392 66.7218 54.2681 68.9826C46.9605 72.9486 39.1652 75.4815 30.8995 76.5546C28.5172 76.863 26.1078 77.0262 23.7175 76.6225C23.4077 76.5744 23.101 76.4982 22.7943 76.4219C22.4654 76.2864 22.1507 76.1524 21.8375 76.0043ZM25.2853 52.9952C25.4686 52.7592 25.6929 52.5419 25.9252 52.3824C28.8159 50.4368 31.9949 49.3905 35.509 49.7322C36.9398 49.8745 38.1676 50.5636 39.1699 51.6121C39.1785 51.926 39.0174 52.2213 38.6971 52.3997C36.9169 53.3572 35.1382 54.3006 33.1066 54.6758C31.7035 54.9349 30.2936 54.994 28.8425 54.9064C27.795 54.6638 26.746 54.4353 25.7016 54.1645C25.2687 53.9323 25.1057 53.4592 25.2853 52.9952ZM79.2981 45.8307C81.4599 46.6219 83.1141 48.1258 84.6382 49.772C84.7784 49.9296 84.9187 50.0872 85.0575 50.2588C82.4115 50.7518 79.8521 51.2399 77.2784 51.7266C76.9667 49.6014 76.9208 47.5337 77.2173 45.347C77.9329 45.4822 78.6373 45.5877 79.2981 45.8307ZM63.3036 30.8942C63.9881 31.1825 64.6744 31.5848 65.2368 32.073C66.9885 33.6018 68.3433 35.4855 69.5004 37.4756C70.3923 39.0099 71.1759 40.6177 71.9893 42.2146C71.9989 42.2583 72.0099 42.2879 72.021 42.3176C69.1382 42.3579 66.2554 42.3982 63.3584 42.4369C63.299 41.2782 63.2583 40.0788 63.1752 38.8748C62.9961 36.3231 62.7887 33.7683 62.6096 31.2166C62.5951 31.087 62.6074 30.9746 62.6182 30.8762C62.8003 30.7823 63.0298 30.7789 63.3036 30.8942Z" fill="#FFAF60"/>
<path d="M64.658 47.4441C64.4267 47.3334 64.164 47.2478 63.8951 47.2184C62.6655 47.0697 61.5202 47.9828 61.399 49.2214C61.3375 49.7837 61.4944 50.3129 61.8067 50.7312C62.0258 51.6087 62.7804 52.3029 63.7584 52.3956C64.7646 52.4915 65.6374 51.9753 66.0142 51.1488C66.3089 50.8111 66.4981 50.3908 66.5519 49.8989C66.6841 48.6899 65.8547 47.6319 64.658 47.4441ZM63.0126 49.5259C63.0249 49.4135 63.0498 49.3166 63.0747 49.2198C63.346 48.9649 63.7324 48.8365 64.1569 48.8829C64.4824 48.9185 64.7657 49.0776 64.9848 49.3007C64.9897 49.3866 64.9931 49.4865 64.9823 49.5849C64.907 50.2737 64.2921 50.7897 63.6051 50.7857C63.191 50.5128 62.9572 50.032 63.0126 49.5259Z" fill="#FFAF60"/>
<path d="M52.917 48.6065C52.6856 48.4958 52.437 48.4117 52.154 48.3808C50.9103 48.2305 49.8136 49.0921 49.6657 50.3135C49.5869 50.9023 49.7564 51.4472 50.0656 51.8936C50.2862 52.757 51 53.4325 51.9465 53.5503C52.9639 53.6758 53.8806 53.1502 54.2762 52.283C54.5537 51.972 54.7413 51.5657 54.8047 51.1175C54.9698 49.8695 54.1293 48.7818 52.917 48.6065ZM51.2321 50.6555C51.2414 50.5712 51.2663 50.4744 51.2896 50.3916C51.5625 50.1227 51.9504 49.9802 52.3482 50.0095C52.6878 50.0466 52.9868 50.1931 53.2059 50.4162C53.2234 50.5177 53.2127 50.6161 53.2019 50.7145C53.1265 51.4033 52.5258 51.9208 51.8545 51.9043C51.453 51.647 51.1909 51.1631 51.2321 50.6555Z" fill="#FFAF60"/>
<path d="M70.5467 46.8933C70.3027 46.7671 70.0385 46.6955 69.7554 46.6645C68.5101 46.5283 67.4276 47.3914 67.2797 48.6128C67.2166 49.1892 67.3735 49.7185 67.6843 50.1508C67.9018 51.0423 68.6706 51.7381 69.6486 51.8308C70.6265 51.9236 71.5149 51.3949 71.8933 50.5543C72.188 50.2167 72.3772 49.7964 72.431 49.3044C72.5617 48.1095 71.7308 47.0655 70.5467 46.8933ZM68.8806 48.9018C68.8898 48.8174 68.9132 48.7346 68.9366 48.6518C69.2095 48.383 69.6115 48.242 70.0078 48.2854C70.3332 48.321 70.6292 48.4956 70.8467 48.7328C70.8642 48.8343 70.8661 48.9483 70.8412 49.0451C70.7532 49.7183 70.1413 50.2062 69.4559 50.1881C69.056 49.9167 68.808 49.4344 68.8806 48.9018Z" fill="#FFAF60"/>
<path d="M58.793 48.0401C58.5617 47.9295 58.299 47.8438 58.016 47.8129C56.7707 47.6766 55.6755 48.5242 55.5276 49.7456C55.4645 50.3219 55.6199 50.8652 55.9306 51.2975C56.1623 52.1906 56.9154 52.8989 57.8792 52.9901C58.8572 53.0829 59.7613 52.5416 60.1538 51.7026C60.4485 51.365 60.6377 50.9447 60.6884 50.4808C60.8348 49.2735 59.9913 48.2139 58.793 48.0401ZM57.1285 50.0345C57.1362 49.9642 57.1596 49.8814 57.1814 49.8127C57.4684 49.5454 57.8736 49.3763 58.2824 49.4352C58.6079 49.4708 58.9038 49.6455 59.1213 49.8826C59.1263 49.9685 59.1312 50.0544 59.1204 50.1528C59.0466 50.8276 58.416 51.356 57.7306 51.338C57.3024 51.0635 57.0559 50.5671 57.1285 50.0345Z" fill="#FFAF60"/>
<path d="M47.0268 49.1713C46.7954 49.0607 46.5468 48.9766 46.2921 48.9487C45.0484 48.7984 43.9203 49.685 43.7834 50.9361C43.7219 51.4984 43.8773 52.0417 44.1896 52.4599C44.4086 53.3374 45.1491 54.0301 46.1114 54.1354C47.0863 54.2562 48.0061 53.7025 48.4001 52.8494C48.6933 52.5258 48.8825 52.1055 48.9332 51.6417C49.0796 50.4343 48.2265 49.331 47.0268 49.1713ZM45.3718 51.2094C45.381 51.1251 45.4059 51.0282 45.4293 50.9454C45.7021 50.6765 46.0901 50.534 46.5004 50.5789C46.8401 50.6161 47.1391 50.7626 47.3424 50.9982C47.3474 51.0841 47.3523 51.17 47.3431 51.2543C47.2788 51.9728 46.6765 52.5044 45.9769 52.4847C45.5754 52.2275 45.3149 51.7295 45.3718 51.2094Z" fill="#FFAF60"/>
</g>
<path d="M109.092 83.1552C106.778 88.3501 99.7539 88.1126 97.7953 82.7477C96.6077 83.553 95.3305 84.0898 93.9058 83.776C93.0177 83.572 92.1436 83.1382 91.3304 82.6819C90.9344 82.4638 90.6854 82.3667 90.2602 82.5665C88.3587 83.5172 86.1173 82.6221 85.3234 80.6849C84.5072 78.6858 85.4488 76.4489 87.4412 75.8083C88.1323 75.5801 88.9372 75.7448 89.6945 75.6815C89.9809 75.6524 90.3482 75.5794 90.5068 75.3872C91.5191 74.1908 92.7735 73.5712 94.3081 73.4232C94.5535 73.3954 94.8744 73.136 94.9704 72.9039C96.6972 68.7057 101.674 67.688 104.863 70.8496C105.053 71.0318 105.425 71.1463 105.712 71.1173C107.348 70.9246 108.736 71.4063 109.899 72.6032C110.089 72.8063 110.401 72.9642 110.668 72.9566C112.886 73.0392 114.595 73.9704 115.517 76.0708C116.35 77.9443 116.137 79.8268 114.849 81.4273C113.462 83.1556 111.632 83.7291 109.483 83.2066C109.338 83.169 109.215 83.1725 109.092 83.1552ZM90.9558 80.3366C91.0407 80.4384 91.1245 80.4986 91.189 80.601C92.7381 83.1213 96.395 83.288 98.0357 80.3848C98.2312 80.0457 98.49 79.7672 98.8067 79.3621C99.233 83.5198 100.242 85.0964 102.696 85.5268C103.707 85.7065 104.688 85.5951 105.618 85.1098C107.175 84.3149 107.936 82.9379 108.236 81.1989C108.548 81.3568 108.756 81.4551 108.943 81.554C110.608 82.3822 112.305 82.1462 113.542 80.9225C114.699 79.7636 114.998 78.0246 114.299 76.5433C113.579 75.021 112.015 74.1483 110.237 74.3866C109.726 74.4637 109.455 74.3255 109.176 73.8956C108.297 72.5655 106.888 72.0845 105.426 72.6057C104.878 72.809 104.608 72.7124 104.245 72.2224C103.136 70.732 101.62 70.0873 99.7824 70.4107C97.9656 70.7336 96.7664 71.8519 96.1603 73.6206C96.0281 74.0205 95.9586 74.4603 95.8697 74.9424C93.3297 74.3685 91.6561 75.3962 90.7175 77.7372C88.859 76.6018 87.6905 76.6351 86.7813 77.8495C86.07 78.808 86.2328 80.2003 87.1387 81.0293C88.2122 81.9786 89.4785 81.7756 90.9558 80.3366Z" fill="#FFAF60"/>
<defs>
<clipPath id="clip0">
<rect width="78" height="54" fill="white" transform="translate(20 28)"/>
</clipPath>
</defs>
</svg>
