<svg width="160" height="80" viewBox="0 0 160 80" fill="none" xmlns="http://www.w3.org/2000/svg">
<path opacity="0.7" d="M1.06149 43.4687C3.19685 38.7174 8.17935 38.5109 12.0942 39.5437C11.9162 38.3043 11.9162 36.8583 11.9162 35.8254C12.0942 31.9005 14.2295 28.8018 16.5428 26.3229C21.5253 20.7454 29.3549 18.4731 35.761 21.5717C35.583 18.0599 35.9389 15.1678 37.8963 12.2758C40.3876 8.97059 44.8362 6.90483 48.3952 6.07853C52.132 5.04566 56.5807 6.49168 59.9616 8.55743C61.0293 9.17716 61.919 10.0035 62.6308 10.8298C63.5206 6.69826 64.7662 3.59963 68.3251 1.74045C72.4179 -0.53188 77.4004 -0.325304 81.6711 0.914148C88.9669 2.9799 95.195 9.38374 96.6185 17.8533C97.5083 16.6139 98.5759 15.581 99.4657 14.7547C102.847 11.0363 107.651 10.21 112.278 9.79689C121.175 9.17716 127.581 14.135 131.852 22.8111C135.233 19.0928 140.927 17.8533 145.376 18.8862C146.443 19.0928 147.333 19.5059 148.401 19.7125C153.739 23.0177 158.722 26.7361 159.789 34.3794C160.679 41.6095 158.722 48.0133 154.451 52.7646C151.782 55.0369 148.401 55.8632 144.842 55.6566C144.842 56.4829 144.842 57.3092 144.664 58.3421C143.774 62.6802 139.859 65.5722 136.656 67.4314C130.072 70.9432 118.862 72.3892 113.168 65.7788C113.168 65.9854 113.168 65.9854 112.99 66.1919C112.1 68.6709 110.498 70.7366 108.541 72.5958C104.982 76.1076 99.6436 77.9667 95.017 79.4128C86.6536 81.8917 76.1547 76.3141 73.4855 66.6051C72.7738 69.4972 70.4605 71.9761 68.503 73.2155C64.9441 75.6944 61.0293 76.3141 56.9366 75.2813C51.9541 74.0418 46.6157 69.4972 45.3701 63.7131C42.7009 69.4972 34.6933 69.084 30.0667 66.8117C27.3975 65.3657 24.3724 62.6802 22.9489 59.1684C21.3474 61.2341 17.2546 62.0605 15.4751 62.0605C11.0265 62.267 6.57783 60.4078 3.3748 56.6895C0.171767 53.3843 -1.07386 47.8068 1.06149 43.4687Z" fill="#EAF5FB"/>
</svg>
