<svg width="66" height="66" viewBox="0 0 66 66" fill="none" xmlns="http://www.w3.org/2000/svg">
<g clip-path="url(#clip0)">
<path d="M62.7952 0.915361C62.7931 0.876432 62.7886 0.83776 62.7819 0.799475C62.7805 0.791354 62.7785 0.783362 62.777 0.775241C62.7702 0.741209 62.7615 0.707565 62.751 0.674178C62.7492 0.668378 62.7476 0.662577 62.7457 0.656776C62.7329 0.619007 62.7177 0.582011 62.7002 0.545788C62.6972 0.539729 62.6939 0.5338 62.6908 0.527741C62.6747 0.496159 62.6567 0.465351 62.637 0.435316C62.6334 0.429773 62.6301 0.42423 62.6263 0.418816C62.6036 0.385945 62.5789 0.354234 62.5517 0.323812C62.5465 0.318011 62.5408 0.312597 62.5356 0.306925C62.5228 0.29339 62.5106 0.279468 62.497 0.266449C62.4853 0.255234 62.4727 0.245308 62.4605 0.234867C62.4563 0.231257 62.4529 0.227003 62.4486 0.223394C62.4461 0.221332 62.4433 0.219914 62.4408 0.217851C62.409 0.191812 62.376 0.167965 62.3418 0.146566C62.3368 0.143472 62.3315 0.140765 62.3263 0.137672C62.2957 0.119238 62.2642 0.102867 62.232 0.0881717C62.2244 0.0846912 62.217 0.0810819 62.2093 0.0777303C62.173 0.0622616 62.136 0.0487265 62.0982 0.0378984C62.0916 0.0359648 62.085 0.0346757 62.0783 0.032871C62.046 0.0243632 62.0134 0.0175312 61.9805 0.012375C61.9708 0.0108281 61.9613 0.00915233 61.9515 0.00786327C61.9137 0.00309374 61.8758 0.000257812 61.8378 0C61.8294 0 61.821 0.000515624 61.8125 0.00064453C61.7802 0.00128906 61.7478 0.00348046 61.7156 0.00734764C61.7061 0.0085078 61.6966 0.00928123 61.6872 0.0106992C61.6486 0.0163711 61.6103 0.0243632 61.5724 0.0349335C61.5657 0.0367382 61.5591 0.0390585 61.5524 0.041121C61.5176 0.0515624 61.4833 0.0640663 61.4495 0.0783748C61.4455 0.0800506 61.4413 0.0810819 61.4373 0.0828866L19.6933 18.6362C19.2054 18.8531 18.9856 19.4243 19.2024 19.9124C19.4192 20.4001 19.9905 20.6199 20.4784 20.4032L56.5394 4.37623L23.2137 33.9991L6.55079 26.5933L16.618 22.119C17.1059 21.902 17.3257 21.3308 17.1088 20.8429C16.892 20.3552 16.3206 20.1354 15.8328 20.3521L3.77776 25.7098C3.42868 25.865 3.20361 26.2112 3.20361 26.5933C3.20361 26.9754 3.42868 27.3215 3.77776 27.4768L22.5035 35.7994L24.5677 51.2801C24.5684 51.2845 24.5699 51.2885 24.5706 51.293C24.5774 51.3396 24.5871 51.3861 24.6007 51.4316C24.6021 51.4362 24.6039 51.4407 24.6054 51.4452C24.619 51.4885 24.6359 51.5309 24.6559 51.5722C24.6578 51.5762 24.6594 51.5804 24.6614 51.5844C24.6818 51.6252 24.7058 51.6645 24.7323 51.7028C24.7375 51.7103 24.7428 51.7175 24.7482 51.7247C24.7753 51.7614 24.8041 51.7971 24.837 51.8305C24.8701 51.8642 24.9057 51.8938 24.9423 51.9217C24.9495 51.9272 24.9568 51.9327 24.9642 51.9379C25.0023 51.9651 25.0414 51.9897 25.0821 52.0109C25.0854 52.0125 25.0889 52.014 25.0922 52.0156C25.1334 52.0363 25.1756 52.0537 25.2187 52.0681C25.224 52.0699 25.229 52.072 25.2344 52.0736C25.2797 52.0879 25.3257 52.0983 25.3722 52.1059C25.3763 52.1065 25.3802 52.1081 25.3845 52.1087C25.3895 52.1095 25.3943 52.1091 25.3993 52.1099C25.4414 52.1154 25.4837 52.1193 25.5261 52.1193C25.5263 52.1193 25.5263 52.1193 25.5264 52.1193H25.5265C25.5268 52.1193 25.527 52.1191 25.5272 52.1191C25.5683 52.1191 25.6093 52.1155 25.65 52.1102C25.6598 52.109 25.6696 52.1077 25.6793 52.1061C25.7604 52.0931 25.84 52.0698 25.9163 52.036C25.9238 52.0326 25.9312 52.0293 25.9386 52.0258C25.9746 52.0088 26.0099 51.9901 26.044 51.9685C26.0452 51.9675 26.0467 51.9669 26.0481 51.966C26.0822 51.9441 26.1151 51.9192 26.1468 51.8924C26.1551 51.8854 26.1629 51.8781 26.1711 51.8709C26.1821 51.8609 26.1936 51.8518 26.2043 51.8414L34.5119 43.6625L48.4026 55.1019C48.5781 55.2465 48.7961 55.3225 49.0173 55.3225C49.1202 55.3225 49.2238 55.306 49.3242 55.2723C49.6403 55.1666 49.8796 54.9053 49.9573 54.5812L62.7704 1.19225C62.7711 1.18967 62.7711 1.1871 62.7717 1.18465C62.7809 1.14494 62.7876 1.10498 62.7916 1.06476C62.7923 1.05729 62.7926 1.04981 62.7931 1.04233C62.7958 1.00792 62.7966 0.973369 62.7957 0.938951C62.7954 0.931088 62.7957 0.923225 62.7952 0.915361ZM26.0392 47.6865L24.4165 35.5167L53.7884 9.40859L30.1118 38.7999C30.1073 38.8055 30.1037 38.8118 30.0993 38.8176C30.0814 38.8408 30.0645 38.8644 30.0491 38.8887C30.0431 38.8982 30.0377 38.9077 30.032 38.9172C30.0177 38.9415 30.0046 38.9661 29.9926 38.9912C29.9902 38.9964 29.9869 39.0012 29.9846 39.0063L26.0392 47.6865ZM28.5642 46.8043L31.2233 40.9542L33.0111 42.4264L28.5642 46.8043ZM48.4379 52.6259L32.2176 39.2681L59.8873 4.91983L48.4379 52.6259Z" fill="#46AADD"/>
<path d="M32.6165 51.5358C32.2391 51.1584 31.6269 51.1582 31.2493 51.5359L22.7075 60.0779C22.3299 60.4556 22.3299 61.0676 22.7075 61.4452C22.8962 61.6339 23.1437 61.7283 23.3911 61.7283C23.6384 61.7283 23.8859 61.6339 24.0747 61.445L32.6165 52.9031C32.9941 52.5254 32.9941 51.9134 32.6165 51.5358Z" fill="#46AADD"/>
<path d="M19.8027 40.9248C19.4252 40.5474 18.8131 40.5474 18.4355 40.9248L9.96018 49.4002C9.58261 49.7779 9.58261 50.39 9.96018 50.7675C10.1489 50.9563 10.3964 51.0506 10.6438 51.0506C10.8911 51.0506 11.1386 50.9561 11.3274 50.7675L19.8027 42.2921C20.1802 41.9144 20.1802 41.3024 19.8027 40.9248Z" fill="#46AADD"/>
<path d="M19.8028 51.5361C19.4254 51.1587 18.8132 51.1587 18.4357 51.5361L5.62253 64.3496C5.24496 64.7273 5.24496 65.3394 5.62253 65.7169C5.81125 65.9057 6.05875 66 6.30612 66C6.55349 66 6.80099 65.9057 6.98971 65.7168L19.8028 52.9034C20.1804 52.5257 20.1804 51.9137 19.8028 51.5361Z" fill="#46AADD"/>
</g>
<defs>
<clipPath id="clip0">
<rect width="66" height="66" fill="white"/>
</clipPath>
</defs>
</svg>
