<svg width="62" height="62" viewBox="0 0 62 62" fill="none" xmlns="http://www.w3.org/2000/svg">
<g clip-path="url(#clip0)">
<path d="M61.0918 3.63281H58.3672V0.908203C58.3672 0.406512 57.9607 0 57.459 0H34.6328C33.1491 0 31.8293 0.715301 31 1.81919C30.1707 0.715301 28.8509 0 27.3672 0H4.54102C4.03932 0 3.63281 0.406512 3.63281 0.908203V3.63281H0.908203C0.406512 3.63281 0 4.03932 0 4.54102V57.459C0 57.9607 0.406512 58.3672 0.908203 58.3672H41.5049V61.0918C41.5049 61.4066 41.6679 61.699 41.9356 61.8644C42.2036 62.0298 42.5379 62.0448 42.8194 61.9041L46.046 60.2908L49.2727 61.9041C49.4009 61.9682 49.5401 62 49.6788 62C49.8449 62 50.0104 61.9545 50.1563 61.8644C50.424 61.699 50.587 61.4066 50.587 61.0918V58.3672H61.0919C61.5936 58.3672 62.0001 57.9607 62.0001 57.459V4.54102C62 4.03932 61.5935 3.63281 61.0918 3.63281ZM34.6328 49.2852C33.6114 49.2852 32.6677 49.6242 31.9082 50.1957C31.9082 48.6911 33.1305 47.4688 34.6328 47.4688H56.5508V49.2852H34.6328ZM30.0918 50.1957C29.3323 49.6242 28.3886 49.2852 27.3672 49.2852H5.44922V47.4688H27.3672C28.8695 47.4688 30.0918 48.6911 30.0918 50.1957ZM5.44922 51.1016H27.3672C28.5511 51.1016 29.5607 51.8609 29.9356 52.918H5.44922V51.1016ZM50.5869 51.1016H56.5508V52.918H50.5869V51.1016ZM5.44922 1.81641H27.3672C28.8695 1.81641 30.0918 3.03873 30.0918 4.54102C30.0918 5.04271 30.4983 5.44922 31 5.44922C31.5017 5.44922 31.9082 5.04271 31.9082 4.54102C31.9082 3.03873 33.1305 1.81641 34.6328 1.81641H56.5508V45.6523H34.6328C33.6114 45.6523 32.6677 45.9914 31.9082 46.5629V8.17383C31.9082 7.67214 31.5017 7.26562 31 7.26562C30.4983 7.26562 30.0918 7.67214 30.0918 8.17383V46.5629C29.3323 45.9914 28.3886 45.6523 27.3672 45.6523H5.44922V1.81641ZM1.81641 5.44922H3.63281V53.8262C3.63281 54.3279 4.03932 54.7344 4.54102 54.7344H30.0918V56.5508H1.81641V5.44922ZM31.9082 56.5508V54.7344H38.7803C39.282 54.7344 39.6885 54.3279 39.6885 53.8262C39.6885 53.3245 39.282 52.918 38.7803 52.918H32.0644C32.4393 51.8609 33.4489 51.1016 34.6328 51.1016H41.5049V56.5508H31.9082ZM48.7705 59.6223L46.452 58.4631C46.1964 58.3351 45.8953 58.3351 45.6396 58.4631L43.3212 59.6223V51.1016H48.7704V59.6223H48.7705ZM60.1836 56.5508H50.5869V54.7344H57.459C57.9607 54.7344 58.3672 54.3279 58.3672 53.8262V5.44922H60.1836V56.5508Z" fill="#FFAF60"/>
<path d="M40.5967 24.6426C41.0983 24.6426 41.5049 24.236 41.5049 23.7344C41.5049 23.2328 41.0983 22.8262 40.5967 22.8262C40.0951 22.8262 39.6885 23.2328 39.6885 23.7344C39.6885 24.236 40.0951 24.6426 40.5967 24.6426Z" fill="#FFAF60"/>
<path d="M47.8623 24.6426C48.3639 24.6426 48.7705 24.236 48.7705 23.7344C48.7705 23.2328 48.3639 22.8262 47.8623 22.8262C47.3607 22.8262 46.9541 23.2328 46.9541 23.7344C46.9541 24.236 47.3607 24.6426 47.8623 24.6426Z" fill="#FFAF60"/>
<path d="M44.2295 24.6426C44.7311 24.6426 45.1377 24.236 45.1377 23.7344C45.1377 23.2328 44.7311 22.8262 44.2295 22.8262C43.7279 22.8262 43.3213 23.2328 43.3213 23.7344C43.3213 24.236 43.7279 24.6426 44.2295 24.6426Z" fill="#FFAF60"/>
<path d="M14.1377 24.6426C14.6393 24.6426 15.0459 24.236 15.0459 23.7344C15.0459 23.2328 14.6393 22.8262 14.1377 22.8262C13.6361 22.8262 13.2295 23.2328 13.2295 23.7344C13.2295 24.236 13.6361 24.6426 14.1377 24.6426Z" fill="#FFAF60"/>
<path d="M21.4033 24.6426C21.9049 24.6426 22.3115 24.236 22.3115 23.7344C22.3115 23.2328 21.9049 22.8262 21.4033 22.8262C20.9017 22.8262 20.4951 23.2328 20.4951 23.7344C20.4951 24.236 20.9017 24.6426 21.4033 24.6426Z" fill="#FFAF60"/>
<path d="M17.7705 24.6426C18.2721 24.6426 18.6787 24.236 18.6787 23.7344C18.6787 23.2328 18.2721 22.8262 17.7705 22.8262C17.2689 22.8262 16.8623 23.2328 16.8623 23.7344C16.8623 24.236 17.2689 24.6426 17.7705 24.6426Z" fill="#FFAF60"/>
</g>
<defs>
<clipPath id="clip0">
<rect width="62" height="62" fill="white"/>
</clipPath>
</defs>
</svg>
