<svg width="68" height="68" viewBox="0 0 68 68" fill="none" xmlns="http://www.w3.org/2000/svg">
<path d="M11.6864 27.3706H7.0376C6.48735 27.3706 6.0415 27.8166 6.0415 28.3667C6.0415 28.9168 6.48735 29.3628 7.0376 29.3628H11.6864C12.2367 29.3628 12.6825 28.9168 12.6825 28.3667C12.6825 27.8167 12.2367 27.3706 11.6864 27.3706Z" fill="#76BEBA"/>
<path d="M60.9627 27.3706H56.314C55.7637 27.3706 55.3179 27.8166 55.3179 28.3667C55.3179 28.9168 55.7637 29.3628 56.314 29.3628H60.9627C61.5128 29.3628 61.9588 28.9168 61.9588 28.3667C61.9588 27.8166 61.5129 27.3706 60.9627 27.3706Z" fill="#76BEBA"/>
<path d="M15.8575 38.9595C15.5824 38.4828 14.9729 38.3196 14.4967 38.5948L10.4706 40.9191C9.58979 41.4276 9.95649 42.7782 10.9696 42.7782C11.3348 42.7782 11.1602 42.8215 15.4928 40.3203C15.9693 40.0451 16.1325 39.4359 15.8575 38.9595Z" fill="#76BEBA"/>
<path d="M58.5578 14.1882C58.2826 13.7118 57.6734 13.5486 57.197 13.8237L53.171 16.148C52.6946 16.4231 52.5314 17.0323 52.8065 17.5088C53.0819 17.9857 53.6914 18.1482 54.1673 17.8734L58.1932 15.549C58.6696 15.2739 58.8329 14.6646 58.5578 14.1882Z" fill="#76BEBA"/>
<path d="M57.2635 40.3878L53.2376 38.0635C52.7609 37.7883 52.1517 37.9518 51.8768 38.428C51.6017 38.9044 51.7649 39.5138 52.2413 39.7888C56.5716 42.2887 56.3989 42.2468 56.7645 42.2468C57.7768 42.2468 58.1452 40.8969 57.2635 40.3878Z" fill="#76BEBA"/>
<path d="M14.5628 15.6166L10.5369 13.2922C10.0602 13.0171 9.45102 13.1804 9.17609 13.6568C8.90104 14.1333 9.06427 14.7427 9.54066 15.0177C13.8709 17.5178 13.6981 17.4757 14.0637 17.4757C15.076 17.4756 15.4448 16.1258 14.5628 15.6166Z" fill="#76BEBA"/>
<path d="M48.8429 3.14454C48.3663 2.86935 47.757 3.03271 47.4821 3.50911L45.1578 7.53491C44.7731 8.20097 45.2584 9.02945 46.0195 9.02945C46.3637 9.02945 46.6985 8.85082 46.883 8.53127L49.2073 4.50533C49.4825 4.0288 49.3193 3.41959 48.8429 3.14454Z" fill="#76BEBA"/>
<path d="M22.5241 7.53515L20.1998 3.50935C19.9246 3.03295 19.3154 2.86959 18.839 3.14478C18.3626 3.41984 18.1994 4.02904 18.4744 4.50558L20.7988 8.53138C21.0742 9.00844 21.6838 9.17074 22.1596 8.89595C22.636 8.62076 22.7992 8.01155 22.5241 7.53515Z" fill="#76BEBA"/>
<path d="M34 0C33.4498 0 33.0039 0.445983 33.0039 0.996092V4.99069C33.0039 5.54079 33.4499 5.98678 34 5.98678C34.5501 5.98678 34.9961 5.54079 34.9961 4.99069V0.996092C34.9962 0.445983 34.5502 0 34 0Z" fill="#76BEBA"/>
<path d="M47.9122 13.743C44.8854 10.3414 40.7964 8.14309 36.3983 7.55301C35.8551 7.47996 35.3518 7.86259 35.2785 8.40792C35.2054 8.95311 35.5881 9.45448 36.1334 9.52779C44.3226 10.6264 50.5602 17.6858 50.965 26.3133C50.9911 26.8659 51.462 27.2885 52.007 27.2615C52.5565 27.2358 52.981 26.7693 52.9554 26.2198C52.738 21.5845 50.947 17.1533 47.9122 13.743Z" fill="#76BEBA"/>
<path d="M51.8187 29.9372C51.2789 29.8334 50.7564 30.1871 50.6526 30.7275C49.4457 37.0131 45.5649 40.1332 44.8298 40.9168C44.4828 41.2839 41.7816 44.2145 41.2167 47.0588H37.5498V44.7631C41.1857 39.482 41.0918 39.7341 41.0918 39.3085V37.2555C41.9312 36.8267 42.5085 35.955 42.5085 34.9495V34.3297C42.5085 32.9014 41.3465 31.7397 39.9186 31.7397H27.9648C26.5367 31.7397 25.3748 32.9017 25.3748 34.3297C25.3748 34.8739 25.2194 36.4523 26.7917 37.2554C26.7917 39.4953 26.7429 39.5476 26.9672 39.8733L30.3336 44.7629V47.0585H26.6675C26.1314 44.3361 23.4583 41.2651 22.9847 40.8505C19.1158 37.4518 16.8967 32.4769 16.8967 27.2014C16.8967 18.2617 23.2821 10.6635 31.7497 9.52738C32.2949 9.4542 32.6776 8.95284 32.6044 8.40751C32.5311 7.86232 32.0286 7.47915 31.4846 7.5526C22.0322 8.82096 14.9043 17.2681 14.9043 27.2015C14.9043 33.0341 17.3567 38.5401 21.6344 42.3161C22.427 43.16 24.2507 45.4289 24.6834 47.3024C23.7993 47.7149 23.1834 48.6102 23.1834 49.6485C23.1834 51.2555 23.0592 51.9727 23.736 52.8361C23.0599 53.6985 23.1834 54.4081 23.1834 56.0238C23.1834 56.625 23.391 57.1776 23.736 57.6176C23.0599 58.48 23.1834 59.1893 23.1834 60.8053C23.1834 62.2334 24.3454 63.3952 25.7734 63.3952H28.3602C28.8724 66.0086 31.1964 67.9998 33.9413 67.9998C36.6862 67.9998 39.0101 66.0086 39.5225 63.3952H42.1093C43.5374 63.3952 44.6993 62.2333 44.6993 60.8053C44.6993 59.1982 44.8234 58.4811 44.1466 57.6176C44.8228 56.7554 44.6993 56.0459 44.6993 54.4301C44.6993 53.829 44.4915 53.2763 44.1466 52.8363C44.8228 51.9739 44.6993 51.2643 44.6993 49.6486C44.6993 48.6103 44.0838 47.7153 43.1997 47.3026C43.6333 45.434 45.4559 43.1622 46.2486 42.3158C49.516 39.4315 51.774 35.4513 52.6088 31.1031C52.7129 30.5629 52.3589 30.0408 51.8187 29.9372ZM27.3669 34.9495V34.3297C27.3669 34 27.635 33.732 27.9645 33.732H39.9184C40.2479 33.732 40.5161 34.0002 40.5161 34.3297V34.9495C40.5161 35.279 40.2479 35.5472 39.9184 35.5472H27.9645C27.635 35.5472 27.3669 35.279 27.3669 34.9495ZM28.7837 38.9988V37.5395H39.0995V38.9988C35.4636 44.28 35.5575 44.0279 35.5575 44.4534V47.0588H32.3255C32.3255 44.2073 32.3772 44.2187 32.15 43.8884L28.7837 38.9988ZM30.41 63.3952H37.4731C36.396 66.8651 31.4864 66.8632 30.41 63.3952ZM42.7072 60.8053C42.7072 61.1348 42.4392 61.4029 42.1096 61.4029C40.5603 61.4029 27.5559 61.4029 25.7736 61.4029C25.4441 61.4029 25.176 61.1348 25.176 60.8053V59.2115C25.176 58.8819 25.4441 58.6139 25.7736 58.6139H42.1096C42.4392 58.6139 42.7072 58.8819 42.7072 59.2115V60.8053ZM42.7072 56.0238C42.7072 56.3533 42.4392 56.6214 42.1096 56.6214H25.7736C25.4441 56.6214 25.176 56.3533 25.176 56.0238V54.43C25.176 54.1005 25.4441 53.8324 25.7736 53.8324H42.1096C42.4392 53.8324 42.7072 54.1005 42.7072 54.43V56.0238ZM42.7072 51.2424C42.7072 51.572 42.4392 51.84 42.1096 51.84H25.7736C25.4441 51.84 25.176 51.572 25.176 51.2424V49.6486C25.176 49.3191 25.4441 49.051 25.7736 49.051H42.1096C42.4392 49.051 42.7072 49.3191 42.7072 49.6486V51.2424Z" fill="#76BEBA"/>
</svg>
